<?xml version="1.0" encoding="UTF-8"?>
<svg version="1.1" viewBox="0 0 1980 2016" width="1280" height="1280" xmlns="http://www.w3.org/2000/svg">
<path transform="translate(1019,735)" d="m0 0 3 1 7 8 20 20 7 6 4 5 5 4 5 5 11 12 20 20 12 11 5 5 6 7 5 5 12 11 5 5 4 5 7 6 7 8 10 9 5 6 6 5 17 17 4 5 7 6 3 3v2l4 2 115 115 3 2 1 4v124l-1 35-3 16-7 15-8 12-9 10-12 11-5 3h-2v336h57l8 2 9 6 7 6 7 10 4 9 1 6v52l-1 1h-229l-2-7-5-16-4-6-9-9-7-4-10-2-12-1-44-1-1-7v-142l5-6 11-9 12-12 10-16 5-16 2-14v-147l-10-1-14-6-9-8-7-12-4-14v-11l5-16 8-11 14-10 12-3 17-3 16-5 13-13 3-7 3-14 1-50-26 1h-20l-3-16-7-14-7-7-14-6-7-2-12-1-41-1-1-1-1-46-16 4-17 4-13 7-11 8-10 9-5 4-7 8-10 13-8 13-12 23-8 19-8 28-5 19-5 43-1 13-1 26-8-1-31-6-21-3h-20l-23 3-28 5-21 6-24 10-22 11-16 11-17 13-10 9-21 21-10 13-11 16-10 17-9 19-8 21-8 31-3 16-1 10-1 228-1 1h-28l-26-3-31-7-19-7-16-8-14-8-14-10-10-8-13-12-11-12-13-18-8-13-8-16-7-17-6-21-6-32-1-17 2-19 11-58 11-39 11-32 7-15 5-12 10-19 14-25 7-10 8-12 10-14 12-14 8-10 11-12 5-6h2l2-4 4-4h2l2-4 8-7 10-9 11-9 13-11 11-9 13-11 9-7 13-11 14-11 15-13 11-9 14-11 17-14 13-11 14-11 10-9 14-11 16-13 14-12 14-11 14-12 11-9 14-11h2v-2l11-9 13-11 10-8 11-9 14-11 10-9 14-11 14-12 11-9 16-13 11-9 14-12 14-11 13-11 10-8 13-11 14-11 9-8 14-11 17-14z"/>
<path transform="translate(1374,419)" d="m0 0h11v92l16-1h46l66 1 8 16 11 28 6 15 15 38 5 13v2l26 5 96 16 28 6 1 1v30l-1 20-2 12-6 18-6 10-11 13-9 7-13 8-13 6-24 7-21 4-19 2-63 2-164 164-4-2-11-12-6-7-6-5v-2l-4-2-24-24v-2l-4-2-212-212 1-4 13-11 11-9 13-11 11-9 13-11 14-11 13-11 17-14 14-11 13-11 11-9 13-11 14-11 14-12 13-10 5-4 2-4 2-15 6-18 8-16 9-12 9-9 10-7 9-5 19-7z" fill="#010101"/>
<path transform="translate(581,399)" d="m0 0h39l30 4 23 5 22 8 24 11 17 10 11 8 13 10 14 12 11 11 7 8 10 12 14 21 10 18 8 17 10 30 4 20 4 28v34l-5 36-6 22-8 23-10 21-13 21-12 16-8 10-13 14h-2l-1 3-8 7-15 12-12 8-18 11-25 12-30 10-25 5-22 3-21 1-23-2-32-5-32-10-11-4-19-10-20-12-18-13-16-15-15-15-9-11-12-17-8-13-12-24-7-18-7-21-5-29-2-24v-21l2-22 6-31 9-26 8-18 11-21 10-15 11-14 11-13 15-15 14-11 18-13 19-11 21-10 28-10 25-5zm2 41-21 3-23 6-21 7-16 8-15 9-16 12-14 12-15 15-10 13-12 18-8 16-7 15-6 20-5 17-2 13-1 19v11l2 28 7 27 8 24 11 21 7 11 14 19 12 13 8 8 11 9 8 6 22 14 26 12 29 8 21 4 9 1h31l26-4 15-4 20-6 28-14 19-12 13-11 15-14 1-3 3-1 9-11 10-13 6-10 10-19 7-17 6-21 5-25 1-9v-31l-3-21-5-21-6-20-9-19-13-21-7-10-8-10-15-15-11-10-16-12-19-11-21-10-23-7-21-5-20-2z" fill="#050505"/>
<path transform="translate(601,462)" d="m0 0 5 2 12 13 16 16 1 4v119l32-1h45l6 8 8 7 13 13 4 3-1 4-9 10-8 7-7 7-3 5-2 1-137 1-7-1v-186l20-20 7-8z" fill="#030303"/>
<path transform="translate(1291,1280)" d="m0 0 3 1h-2v336l-3-1v-333z" fill="#8A8A8B"/>
<path transform="translate(1099,1471)" d="m0 0 1 3-7 11-3 5-3 3-5 6-5 5-4 1-4 5h-2l-1 4-1 147h44l16 2 9 4 10 9 7 10 3 10v6l-2-4-4-12-4-6-9-9-7-4-10-2-12-1-44-1-1-7v-142l5-6 11-9 12-12z" fill="#8C8C8D"/>
<path transform="translate(554,1462)" d="m0 0h4l-2 18-1 228h-3l1-230z" fill="#8C8C8D"/>
<path transform="translate(1380,1643)" d="m0 0 3 4 2 9v52l-1 1h-229v-1h227l-1-43z" fill="#8A8A8B"/>
<path transform="translate(1374,419)" d="m0 0h11v92l-2-3-2-13v-75h-7z" fill="#8A8A8B"/>
<path transform="translate(631,491)" d="m0 0 4 4v121l-4-5z" fill="#8A8A8B"/>
<path transform="translate(1108,1107)" d="m0 0h39v2h8l1 1v53l-3 13-2 1-1 4h-2l3-12 2-9 1-50-26 1h-20z" fill="#8A8A8B"/>
<path transform="translate(516,1149)" d="m0 0 2 1-11 11-9 7-6 4-10 10-5 4-5 5-7 6-6 7-5 5-1 2h-2l-1 3-15 15-2 3-2-1 8-10 11-12 5-6h2l2-4 4-4h2l2-4 8-7 10-9 11-9 13-11z" fill="#8C8C8D"/>
<path transform="translate(801,587)" d="m0 0 4 2 3 16 4 20 1 9v24l-2 21-4 20-3 9-2 2 2-11 5-25 1-9v-31l-3-21-5-21z" fill="#8A8A8B"/>
<path transform="translate(1556,618)" d="m0 0 2 3v2l26 5 96 16v1l-16-1-13-2-20-4-44-7-20-2-10-5z" fill="#8D8D8E"/>
<path transform="translate(1601,784)" d="m0 0h8v1l-13 2-12 1-64 2v-3l6-1 50-1z" fill="#8B8B8C"/>
<path transform="translate(1380,1643)" d="m0 0 3 4 2 9v52l-5 1 2-1-1-43z" fill="#8B8B8C"/>
<path transform="translate(882,1184)" d="m0 0h1l-1 17-3 31-1 26-8-1-14-3v-1h10l9 2 2-41 2-16z" fill="#8E8E8F"/>
<path transform="translate(1214,575)" d="m0 0 2 1-11 10-1 2-4 2-5 5-7 6-6 4-5 5h-3l-2 4-8 5-6 7h-2l-5 6-3-1v-2l14-11 13-11 17-14 14-11z" fill="#969696"/>
<path transform="translate(1686,646)" d="m0 0 9 1 13 3 1 1v30l-1 20-2 12-1 3h-2l2-11 1-17 1-36-23-3-1-2z" fill="#8B8B8C"/>
<path transform="translate(555,895)" d="m0 0 19 1 18 1h23l12-1h14v1l-22 3-21 1-23-2-20-3z" fill="#8B8B8C"/>
<path transform="translate(848,611)" d="m0 0h1l3 21v34l-4 30h-1v-10l2-24v-26z" fill="#8A8A8B"/>
<path transform="translate(335,1428)" d="m0 0h1l-1 14-3 18-4 16-2 16v20l2 16h-2l-2-11-1-17 2-19z" fill="#8C8C8D"/>
<path transform="translate(658,850)" d="m0 0 3 1-2 2-17 4-18 3h-43l-19-3-2-2 11 1 15 2h31l26-4z" fill="#8A8A8B"/>
<path transform="translate(783,1246)" d="m0 0h40l12 1 3 3-11-1-9-1h-20l-17 2h-6l-1-2z" fill="#8A8A8B"/>
<path transform="translate(436,460)" d="m0 0v3h-2l-2 4-5 5-4 2-1 3-10 10-8 11h-2l2-4 8-10 9-10 12-12z" fill="#8C8C8D"/>
<path transform="translate(877,1229)" d="m0 0h1v29l-8-1-14-3v-1h10l9 2 1-20z" fill="#9A9A9B"/>
<path transform="translate(925,813)" d="m0 0 1 4h-4v2l-7 5-9 9-7 4-3 3v-3l15-13z" fill="#818182"/>
<path transform="translate(1099,1471)" d="m0 0 1 3-7 11-3 5-3 3-5 6-5 5h-5l17-17z" fill="#8C8C8D"/>
<path transform="translate(1129,1196)" d="m0 0 3 1-8 4-7 2-20 2h-6l4-2 20-3z" fill="#8F8F90"/>
<path transform="translate(639,402)" d="m0 0 11 1 23 5 8 3-4 1-9-3-22-3-7-2z" fill="#8A8A8B"/>
<path transform="translate(1175,607)" d="m0 0m-1 1m-1 1 1 3-5 4-5 3-6 7h-2l-5 6-3-1v-2l14-11z" fill="#8E8E8F"/>
<path transform="translate(1333,434)" d="m0 0 2 1-6 6-3 1-6 7h-2l-1 4-4 4-4 6h-2l2-4 7-10 9-9z" fill="#8B8B8C"/>
<path transform="translate(1556,618)" d="m0 0 2 3v2l26 5 3 2h-10l-13-2-7-4z" fill="#8A8A8B"/>
<path transform="translate(1063,1239)" d="m0 0 2 2 1 16 3 11 1 4-3-3-5-16v-11z" fill="#8D8D8E"/>
<path transform="translate(1058,1064)" d="m0 0h13l15 2v2l7 5-1 2-12-6-10-3-12-1z" fill="#909091"/>
<path transform="translate(1295,488)" d="m0 0h1v9l-2 14-4 6-3-1 4-6 2-15z" fill="#8A8A8B"/>
<path transform="translate(335,1428)" d="m0 0h1l-1 14-3 18-2 5h-1l1-11z" fill="#8D8D8E"/>
<path transform="translate(454,1206)" d="m0 0v3l-1 2h-2l-1 3-15 15-2 3-2-1 8-10z" fill="#8B8B8C"/>
<path transform="translate(614,440)" d="m0 0h15l13 1 7 2v3l-23-4-12-1z" fill="#8A8A8B"/>
<path transform="translate(1106,1441)" d="m0 0h1v16l-2 10-4 1 4-18z" fill="#A0A0A1"/>
<path transform="translate(774,531)" d="m0 0 4 1 8 15 4 7 1 5-2-1-6-12-9-14z" fill="#8A8A8B"/>
<path transform="translate(1095,673)" d="m0 0 2 1-3 3 1 2-7 3 6 7 6 5-1 3-13-13 1-4z" fill="#8C8C8D"/>
<path transform="translate(890,1143)" d="m0 0h3l-2 10-6 23h-1l1-10 3-12 1-9z" fill="#929293"/>
<path transform="translate(686,1010)" d="m0 0v3l-4 4-10 7h-2l-1 3-3 2-3-1 14-11z" fill="#8C8C8D"/>
<path transform="translate(477,1699)" d="m0 0 21 3 6 1-2 3-25-5z" fill="#878788"/>
<path transform="translate(1707,687)" d="m0 0h1v14l-2 12-1 3h-2l2-11 1-17z" fill="#8C8C8D"/>
<path transform="translate(516,1149)" d="m0 0 2 1-11 11-9 7-4 2 6-7 15-13z" fill="#8A8A8B"/>
<path transform="translate(1214,575)" d="m0 0 2 1-11 10-1 2-4 2-5 5v-4l13-11z" fill="#8B8B8C"/>
<path transform="translate(717,984)" d="m0 0 2 1-5 6-6 4-10 8-2-1 11-10z" fill="#8A8A8B"/>
<path transform="translate(1281,520)" d="m0 0 2 1-12 11-4 1-2 4-4 3-3-1 13-11z" fill="#8A8A8B"/>
<path transform="translate(391,512)" d="m0 0 1 2-5 8-12 22-1-2 12-23z" fill="#8A8A8B"/>
<path transform="translate(645,1306)" d="m0 0 2 1-10 9-13 13v-3l7-8 6-5 5-5z" fill="#9A9A9B"/>
<path transform="translate(1363,421)" d="m0 0h2l-1 3-11 4-8 2-5 1 1-2z" fill="#8C8C8D"/>
<path transform="translate(498,1164)" d="m0 0m-1 1m-1 1m-1 1m-1 1m-2 1 2 1-5 6-5 3-6 7-2-2 9-9z" fill="#919192"/>
<path transform="translate(571,440)" d="m0 0h12v1l-21 3-9 1 2-3z" fill="#8A8A8B"/>
<path transform="translate(601,462)" d="m0 0 5 2 3 3-1 2-3-1h-8l-3 2 2-4z" fill="#868687"/>
<path transform="translate(523,887)" d="m0 0 9 1 13 3 3 3-8-1-17-5z" fill="#8A8A8B"/>
<path transform="translate(1084,1287)" d="m0 0 22 4v3l-10-1-12-5z" fill="#8A8A8B"/>
<path transform="translate(987,762)" d="m0 0v3l-5 5-10 7-2-1 14-12z" fill="#8C8C8D"/>
<path transform="translate(397,598)" d="m0 0 1 3-4 16-1 7h-1v-10l2-12z" fill="#8C8C8D"/>
<path transform="translate(856,1253)" d="m0 0h10l9 2 2-1v4l-7-1-14-3z" fill="#8A8A8B"/>
<path transform="translate(893,839)" d="m0 0 2 1-7 8-5 3-3 3-2-2 14-12z" fill="#8E8E8F"/>
<path transform="translate(735,969)" d="m0 0 2 1-9 9-5 4-1 2h-2l1-4z" fill="#929293"/>
<path transform="translate(764,946)" d="m0 0v3l-18 14-2-1 13-11 5-2v-2z" fill="#828283"/>
<path transform="translate(1495,812)" d="m0 0 3 1-16 16-1-2 3-4h2v-2l5-4z" fill="#929293"/>
<path transform="translate(1e3 747)" d="m0 0v3l-3 4-3 3-4 2-1 2h-2l1-4z" fill="#8A8A8B"/>
<path transform="translate(417,479)" d="m0 0v3l-5 5-8 11h-2l2-4 8-10z" fill="#8A8A8B"/>
<path transform="translate(876,853)" d="m0 0 2 1-1 3h-2v2l-8 4-4 4-2-1 10-9z" fill="#8A8A8B"/>
<path transform="translate(747,1253)" d="m0 0h10v1l-13 3-9-1 3-2z" fill="#8A8A8B"/>
<path transform="translate(559,1114)" d="m0 0v3l-3 3-12 9-2-1 13-11z" fill="#8A8A8B"/>
<path transform="translate(681,842)" d="m0 0 2 1-5 5-13 1 3-2 10-3z" fill="#8A8A8B"/>
<path transform="translate(558,402)" d="m0 0h5l-8 4h-14v-1z" fill="#8A8A8B"/>
<path transform="translate(619,1329)" d="m0 0 3 1-6 7-5 5 1-5 4-3z" fill="#868687"/>
<path transform="translate(990,1020)" d="m0 0h9l-4 2-13 3-3 1-1-3z" fill="#8A8A8B"/>
<path transform="translate(1519,527)" d="m0 0h2l6 15-1 3v-2l-3-1-1-4-3-9z" fill="#8D8D8E"/>
<path transform="translate(1319,446)" d="m0 0m-1 1m-1 1 1 4-5 5-4 6h-2l2-4 7-10z" fill="#828283"/>
<path transform="translate(425,1238)" d="m0 0 1 3-3 1v3l-10 10 2-5z" fill="#8A8A8B"/>
<path transform="translate(574,1102)" d="m0 0v3l-3 3-8 6-2-2 10-8z" fill="#979798"/>
<path transform="translate(1102,1084)" d="m0 0 4 2 1 5v7l-2-3-4-10z" fill="#8D8D8E"/>
<path transform="translate(846,878)" d="m0 0 1 3-8 6-1 2-4-1 8-7z" fill="#8A8A8B"/>
<path transform="translate(1117,655)" d="m0 0v3l-3 3h-2l-1 3h-3v2h-2v2l-3-1 11-10z" fill="#8A8A8B"/>
<path transform="translate(1231,561)" d="m0 0 2 1-8 8-5 4-3-1z" fill="#858586"/>
<path transform="translate(767,833)" d="m0 0h2l-1 4-9 8-2-1 5-5z" fill="#8A8A8B"/>
<path transform="translate(577,486)" d="m0 0v3l-4 7h-2l-2 4v-6l5-5z" fill="#8A8A8B"/>
<path transform="translate(1069,1223)" d="m0 0 1 3-2 4-2 10-2-3 2-9z" fill="#919192"/>
<path transform="translate(345,1589)" d="m0 0h2l6 12-1 4-7-14z" fill="#858586"/>
<path transform="translate(641,1047)" d="m0 0 1 3-4 3h-3l-2 4-4 1 5-6z" fill="#8A8A8B"/>
<path transform="translate(766,517)" d="m0 0 5 5 3 4-1 3-4-5-3-3z" fill="#7C7C7D"/>
<path transform="translate(745,497)" d="m0 0 5 1 3 4v2l4 2-2 2-8-9z" fill="#7C7C7D"/>
<path transform="translate(402,1660)" d="m0 0 6 3 5 7-4-2-7-5z" fill="#7A7A7B"/>
<path transform="translate(1086,1491)" d="m0 0 1 2-5 6-5 5-3-1z" fill="#8A8A8B"/>
<path transform="translate(332,1450)" d="m0 0h1l-1 10-2 5h-1l1-11z" fill="#8A8A8B"/>
<path transform="translate(907,1099)" d="m0 0 3 1-2 6-3 6-1-3z" fill="#969696"/>
<path transform="translate(1303,468)" d="m0 0 1 3-2 6-3 6-2 1 3-9z" fill="#8A8A8B"/>
<path transform="translate(1192,593)" d="m0 0h2l-1 4-7 5-2-1 5-5z" fill="#929293"/>
<path transform="translate(455,1693)" d="m0 0h7l6 3 1 2-9-2-5-2z" fill="#8A8A8B"/>
<path transform="translate(698,1271)" d="m0 0 4 1-13 6 1-4 7-2z" fill="#8A8A8B"/>
<path transform="translate(890,1143)" d="m0 0h3l-2 10-2 1v-9z" fill="#8A8A8B"/>
<path transform="translate(900,1116)" d="m0 0 2 4-4 9h-1v-7z" fill="#8A8A8B"/>
<path transform="translate(1633,777)" d="m0 0h6l-4 2-10 2-3-2z" fill="#8A8A8B"/>
<path transform="translate(583,1379)" d="m0 0 3 2-5 10-1-4 2-6z" fill="#8A8A8B"/>
<path transform="translate(723,819)" d="m0 0 2 1-4 4h-3v2l-5 2-1-2z" fill="#7F7F80"/>
<path transform="translate(749,797)" d="m0 0 1 3-8 7-3-1z" fill="#8A8A8B"/>
</svg>
